<svg width="170" height="58" viewBox="0 0 170 58" fill="none" xmlns="http://www.w3.org/2000/svg">
<g clip-path="url(#clip0_1_569)">
<g clip-path="url(#clip1_1_569)">
<g clip-path="url(#clip2_1_569)">
<path d="M156.462 0.892275H13.5454C13.0244 0.892275 12.5097 0.892275 11.9902 0.895116C11.5552 0.897957 11.1238 0.906211 10.6847 0.913158C9.73072 0.924384 8.77902 1.00831 7.83783 1.1642C6.89797 1.32349 5.98755 1.62379 5.13736 2.05494C4.28821 2.48975 3.51232 3.05473 2.83784 3.7294C2.15981 4.40217 1.59462 5.1798 1.164 6.03239C0.7322 6.88328 0.432786 7.79509 0.276102 8.73633C0.117929 9.67638 0.0328146 10.6273 0.0215228 11.5805C0.00833918 12.016 0.00694695 12.453 0 12.8887V45.7258C0.00694695 46.1669 0.00833918 46.5942 0.0215228 47.0355C0.032818 47.9886 0.117932 48.9395 0.276102 49.8795C0.432353 50.8213 0.731785 51.7336 1.164 52.5848C1.59442 53.4346 2.15969 54.2091 2.83784 54.8782C3.50976 55.5558 4.28616 56.1212 5.13736 56.5527C5.98754 56.985 6.89786 57.2871 7.83783 57.4488C8.77918 57.6035 9.73078 57.6874 10.6847 57.7C11.1238 57.7096 11.5552 57.7152 11.9902 57.7152C12.5097 57.718 13.0245 57.718 13.5454 57.718H156.462C156.973 57.718 157.492 57.718 158.002 57.7152C158.435 57.7152 158.879 57.7096 159.312 57.7C160.264 57.6881 161.214 57.6041 162.153 57.4488C163.096 57.2859 164.01 56.9839 164.864 56.5527C165.715 56.1209 166.49 55.5556 167.162 54.8782C167.838 54.2065 168.404 53.4326 168.84 52.5848C169.269 51.733 169.566 50.8207 169.72 49.8795C169.878 48.9393 169.966 47.9887 169.983 47.0355C169.989 46.5942 169.989 46.1669 169.989 45.7258C170 45.2097 170 44.6964 170 44.1719V14.4397C170 13.9195 170 13.4034 169.989 12.8887C169.989 12.453 169.989 12.016 169.983 11.5804C169.966 10.6271 169.878 9.67645 169.72 8.73627C169.565 7.79558 169.269 6.88384 168.84 6.03233C167.963 4.32341 166.573 2.93235 164.864 2.05482C164.01 1.62471 163.096 1.32449 162.153 1.16407C161.214 1.00749 160.264 0.92354 159.312 0.912959C158.879 0.906026 158.435 0.897701 158.002 0.894931C157.492 0.89209 156.973 0.892275 156.462 0.892275Z" fill="#A6A6A6"/>
<path d="M11.9971 56.4749C11.5643 56.4749 11.1419 56.4693 10.7124 56.4597C9.82279 56.4481 8.93523 56.3706 8.05704 56.228C7.23816 56.0869 6.4449 55.8246 5.7034 55.4496C4.9687 55.0777 4.2986 54.5901 3.71876 54.0054C3.13053 53.4276 2.6408 52.7574 2.26898 52.0214C1.89306 51.2807 1.6329 50.4867 1.49757 49.6672C1.35142 48.7865 1.27235 47.8961 1.26103 47.0034C1.25203 46.7038 1.24023 45.7063 1.24023 45.7063V12.8886C1.24023 12.8886 1.25279 11.9063 1.2611 11.6178C1.27194 10.7266 1.35055 9.83749 1.49626 8.95822C1.63185 8.13641 1.89221 7.34014 2.26833 6.59697C2.63878 5.86152 3.12579 5.19086 3.71048 4.61098C4.29451 4.02559 4.96676 3.53545 5.7027 3.15842C6.4425 2.78462 7.23426 2.52413 8.05148 2.38567C8.93256 2.24157 9.8232 2.16366 10.7159 2.1526L11.9978 2.13525H157.995L159.292 2.1533C160.177 2.16381 161.06 2.24102 161.933 2.38428C162.758 2.52447 163.558 2.78678 164.306 3.16258C165.781 3.9224 166.98 5.12452 167.737 6.60044C168.107 7.33847 168.364 8.12825 168.498 8.94296C168.645 9.82945 168.728 10.7255 168.744 11.624C168.749 12.0263 168.749 12.4585 168.749 12.8886C168.76 13.4213 168.76 13.9284 168.76 14.4396V44.1718C168.76 44.6879 168.76 45.1916 168.749 45.6993C168.749 46.1613 168.749 46.5845 168.743 47.0201C168.726 47.9025 168.645 48.7826 168.5 49.6532C168.368 50.4787 168.109 51.2789 167.733 52.0257C167.359 52.7537 166.872 53.418 166.29 53.9943C165.71 54.5821 165.039 55.0726 164.302 55.4469C163.556 55.8248 162.757 56.0881 161.933 56.228C161.054 56.3714 160.167 56.4488 159.277 56.4597C158.861 56.4693 158.425 56.4749 158.002 56.4749L156.462 56.4777L11.9971 56.4749Z" fill="black"/>
<path d="M35.1878 29.732C35.203 28.5463 35.518 27.3837 36.1033 26.3523C36.6887 25.321 37.5254 24.4545 38.5356 23.8334C37.8938 22.9169 37.0472 22.1626 36.0629 21.6305C35.0787 21.0984 33.9839 20.8031 32.8656 20.7682C30.48 20.5178 28.1672 22.1957 26.9516 22.1957C25.7124 22.1957 23.8407 20.793 21.8252 20.8345C20.5215 20.8766 19.2509 21.2557 18.1373 21.9349C17.0237 22.614 16.105 23.57 15.4708 24.7098C12.7232 29.4667 14.7726 36.4578 17.4045 40.3029C18.7213 42.1858 20.2603 44.289 22.274 44.2144C24.2445 44.1326 24.9804 42.9578 27.359 42.9578C29.7155 42.9578 30.406 44.2144 32.4606 44.1669C34.575 44.1326 35.9072 42.2757 37.1778 40.3751C38.1239 39.0335 38.852 37.5507 39.335 35.9817C38.1065 35.4621 37.0582 34.5924 36.3207 33.4811C35.5832 32.3697 35.1892 31.0658 35.1878 29.732Z" fill="white"/>
<path d="M31.3071 18.2392C32.46 16.8552 33.028 15.0763 32.8904 13.2803C31.1291 13.4653 29.5021 14.3071 28.3336 15.638C27.7623 16.2882 27.3247 17.0446 27.0459 17.864C26.7671 18.6833 26.6526 19.5496 26.7088 20.4133C27.5898 20.4224 28.4614 20.2314 29.2579 19.8548C30.0544 19.4783 30.755 18.9258 31.3071 18.2392Z" fill="white"/>
<path d="M60.0964 39.4475H53.372L51.7571 44.2158H48.9089L55.2782 26.5742H58.2374L64.6067 44.2158H61.7099L60.0964 39.4475ZM54.0684 37.2471H59.3987L56.771 29.5085H56.6975L54.0684 37.2471Z" fill="white"/>
<path d="M78.3623 37.7855C78.3623 41.7824 76.223 44.3504 72.9946 44.3504C72.1768 44.3932 71.3635 44.2048 70.6478 43.8068C69.9321 43.4089 69.3429 42.8174 68.9477 42.1001H68.8866V48.4708H66.2465V31.3537H68.8021V33.493H68.8506C69.264 32.7792 69.8631 32.1908 70.5842 31.7904C71.3054 31.39 72.1216 31.1926 72.9461 31.2192C76.2104 31.2192 78.3623 33.7996 78.3623 37.7855ZM75.6486 37.7855C75.6486 35.1815 74.3029 33.4695 72.2496 33.4695C70.2324 33.4695 68.8756 35.2175 68.8756 37.7855C68.8756 40.3771 70.2324 42.1126 72.2496 42.1126C74.3029 42.1126 75.6486 40.4131 75.6486 37.7855Z" fill="white"/>
<path d="M92.5187 37.7855C92.5187 41.7824 90.3795 44.3504 87.1511 44.3504C86.3333 44.3932 85.52 44.2048 84.8043 43.8068C84.0886 43.4089 83.4994 42.8174 83.1042 42.1001H83.0431V48.4708H80.403V31.3537H82.9585V33.493H83.007C83.4204 32.7792 84.0195 32.1908 84.7407 31.7904C85.4618 31.39 86.2781 31.1926 87.1025 31.2192C90.367 31.2192 92.5187 33.7996 92.5187 37.7855ZM89.8051 37.7855C89.8051 35.1814 88.4594 33.4694 86.4061 33.4694C84.3889 33.4694 83.0321 35.2175 83.0321 37.7855C83.0321 40.3771 84.3889 42.1126 86.4061 42.1126C88.4594 42.1126 89.8051 40.4131 89.8051 37.7855Z" fill="white"/>
<path d="M101.875 39.3006C102.071 41.0501 103.77 42.1987 106.093 42.1987C108.318 42.1987 109.919 41.05 109.919 39.4726C109.919 38.1033 108.953 37.2834 106.667 36.7215L104.381 36.1707C101.141 35.3882 99.6372 33.8732 99.6372 31.4148C99.6372 28.371 102.29 26.2803 106.056 26.2803C109.784 26.2803 112.34 28.371 112.426 31.4148H109.761C109.601 29.6543 108.146 28.5916 106.019 28.5916C103.892 28.5916 102.437 29.6668 102.437 31.2317C102.437 32.479 103.366 33.2129 105.64 33.7747L107.584 34.2519C111.203 35.1079 112.707 36.5619 112.707 39.1423C112.707 42.4428 110.078 44.51 105.897 44.51C101.985 44.51 99.3431 42.4914 99.1724 39.3005L101.875 39.3006Z" fill="white"/>
<path d="M118.405 28.3101V31.3539H120.851V33.4446H118.405V40.5354C118.405 41.6369 118.895 42.1502 119.97 42.1502C120.261 42.1452 120.55 42.1248 120.839 42.0891V44.1674C120.355 44.2577 119.864 44.2986 119.372 44.2895C116.768 44.2895 115.753 43.3114 115.753 40.8169V33.4446H113.883V31.3539H115.753V28.3101H118.405Z" fill="white"/>
<path d="M122.268 37.7857C122.268 33.7388 124.651 31.1958 128.368 31.1958C132.097 31.1958 134.469 33.7388 134.469 37.7857C134.469 41.8437 132.11 44.3756 128.368 44.3756C124.628 44.3756 122.268 41.8437 122.268 37.7857ZM131.779 37.7857C131.779 35.0096 130.507 33.3712 128.368 33.3712C126.229 33.3712 124.958 35.0221 124.958 37.7857C124.958 40.5729 126.229 42.1989 128.368 42.1989C130.507 42.1989 131.779 40.5729 131.779 37.7857Z" fill="white"/>
<path d="M136.646 31.3541H139.164V33.5433H139.225C139.396 32.8596 139.796 32.2553 140.36 31.8322C140.923 31.409 141.615 31.1926 142.319 31.2195C142.623 31.2185 142.927 31.2515 143.224 31.318V33.7875C142.839 33.6701 142.439 33.6162 142.037 33.628C141.654 33.6124 141.271 33.68 140.916 33.8262C140.562 33.9724 140.242 34.1936 139.981 34.4747C139.72 34.7559 139.522 35.0902 139.402 35.4549C139.282 35.8195 139.243 36.2058 139.286 36.5872V44.2162H136.646L136.646 31.3541Z" fill="white"/>
<path d="M155.396 40.4383C155.041 42.7732 152.767 44.3756 149.858 44.3756C146.116 44.3756 143.794 41.8687 143.794 37.8467C143.794 33.8123 146.129 31.1958 149.747 31.1958C153.305 31.1958 155.543 33.6403 155.543 37.5401V38.4447H146.459V38.6042C146.417 39.0776 146.476 39.5545 146.633 40.0031C146.789 40.4518 147.039 40.8621 147.367 41.2067C147.694 41.5513 148.091 41.8223 148.531 42.0017C148.971 42.1811 149.444 42.2649 149.919 42.2474C150.543 42.3059 151.169 42.1614 151.704 41.8354C152.239 41.5095 152.655 41.0195 152.889 40.4383L155.396 40.4383ZM146.471 36.5995H152.902C152.925 36.1739 152.861 35.748 152.712 35.3485C152.563 34.949 152.334 34.5845 152.038 34.278C151.741 33.9715 151.385 33.7295 150.991 33.5672C150.596 33.405 150.173 33.3259 149.747 33.3351C149.317 33.3325 148.891 33.4151 148.493 33.5781C148.095 33.7411 147.733 33.9813 147.429 34.2848C147.124 34.5883 146.883 34.9491 146.719 35.3464C146.554 35.7437 146.47 36.1696 146.471 36.5995Z" fill="white"/>
<path d="M53.7375 13.2958C54.291 13.256 54.8464 13.3397 55.3637 13.5406C55.881 13.7415 56.3472 14.0547 56.7288 14.4577C57.1104 14.8606 57.3977 15.3432 57.5702 15.8706C57.7427 16.3981 57.7959 16.9572 57.7262 17.5077C57.7262 20.2158 56.2625 21.7725 53.7375 21.7725H50.6757V13.2958H53.7375ZM51.9922 20.5737H53.5905C53.986 20.5974 54.3818 20.5325 54.7491 20.3839C55.1164 20.2353 55.4459 20.0066 55.7137 19.7146C55.9815 19.4225 56.1808 19.0745 56.2971 18.6957C56.4134 18.3169 56.4437 17.917 56.386 17.525C56.4395 17.1346 56.4061 16.7371 56.288 16.3611C56.1699 15.9851 55.9701 15.6399 55.703 15.3502C55.4358 15.0605 55.1078 14.8334 54.7426 14.6854C54.3774 14.5373 53.984 14.4718 53.5905 14.4937H51.9922V20.5737Z" fill="white"/>
<path d="M59.2134 18.5711C59.1732 18.1507 59.2213 17.7266 59.3546 17.3258C59.4879 16.9251 59.7035 16.5567 59.9875 16.2442C60.2716 15.9317 60.6178 15.682 61.004 15.5111C61.3902 15.3402 61.8079 15.252 62.2302 15.252C62.6525 15.252 63.0701 15.3402 63.4563 15.5111C63.8425 15.682 64.1888 15.9317 64.4728 16.2442C64.7569 16.5567 64.9725 16.9251 65.1058 17.3258C65.2391 17.7266 65.2872 18.1507 65.247 18.5711C65.2879 18.9919 65.2404 19.4167 65.1075 19.8181C64.9745 20.2194 64.759 20.5885 64.4749 20.9017C64.1908 21.2148 63.8443 21.465 63.4577 21.6363C63.0711 21.8075 62.653 21.8959 62.2302 21.8959C61.8074 21.8959 61.3892 21.8075 61.0026 21.6363C60.616 21.465 60.2695 21.2148 59.9854 20.9017C59.7013 20.5885 59.4858 20.2194 59.3529 19.8181C59.2199 19.4167 59.1724 18.9919 59.2134 18.5711ZM63.9484 18.5711C63.9484 17.1845 63.3255 16.3736 62.2322 16.3736C61.1349 16.3736 60.5175 17.1845 60.5175 18.5711C60.5175 19.9689 61.1349 20.7735 62.2322 20.7735C63.3255 20.7735 63.9484 19.9633 63.9484 18.5711Z" fill="white"/>
<path d="M73.2672 21.7721H71.9576L70.6354 17.0606H70.5356L69.219 21.7721H67.9218L66.1585 15.375H67.439L68.5849 20.2563H68.6793L69.9945 15.375H71.2056L72.5208 20.2563H72.6207L73.7611 15.375H75.0236L73.2672 21.7721Z" fill="white"/>
<path d="M76.5067 15.3754H77.722V16.3916H77.8163C77.9764 16.0266 78.2463 15.7207 78.5885 15.5164C78.9307 15.3121 79.3281 15.2196 79.7253 15.2519C80.0366 15.2285 80.3491 15.2754 80.6398 15.3892C80.9304 15.503 81.1918 15.6807 81.4044 15.9092C81.6171 16.1377 81.7756 16.4112 81.8682 16.7092C81.9608 17.0073 81.9852 17.3224 81.9395 17.6312V21.7724H80.677V17.9482C80.677 16.9202 80.2303 16.409 79.2966 16.409C79.0853 16.3991 78.8743 16.4351 78.6782 16.5144C78.4821 16.5937 78.3054 16.7145 78.1603 16.8685C78.0152 17.0225 77.9052 17.206 77.8377 17.4065C77.7701 17.607 77.7468 17.8197 77.7691 18.0301V21.7724H76.5067L76.5067 15.3754Z" fill="white"/>
<path d="M83.9512 12.8779H85.2137V21.7722H83.9512V12.8779Z" fill="white"/>
<path d="M86.9687 18.5707C86.9285 18.1503 86.9766 17.7261 87.1099 17.3254C87.2433 16.9247 87.4589 16.5562 87.743 16.2437C88.0271 15.9312 88.3733 15.6815 88.7595 15.5106C89.1458 15.3397 89.5635 15.2515 89.9858 15.2515C90.4081 15.2515 90.8258 15.3397 91.212 15.5106C91.5983 15.6815 91.9445 15.9312 92.2286 16.2437C92.5127 16.5562 92.7283 16.9247 92.8616 17.3254C92.995 17.7261 93.0431 18.1503 93.0029 18.5707C93.0439 18.9916 92.9963 19.4163 92.8633 19.8177C92.7303 20.2191 92.5148 20.5882 92.2306 20.9013C91.9465 21.2144 91.6 21.4646 91.2134 21.6359C90.8268 21.8071 90.4086 21.8955 89.9858 21.8955C89.563 21.8955 89.1448 21.8071 88.7582 21.6359C88.3716 21.4646 88.0251 21.2144 87.7409 20.9013C87.4568 20.5882 87.2413 20.2191 87.1083 19.8177C86.9753 19.4163 86.9277 18.9916 86.9687 18.5707ZM91.7037 18.5707C91.7037 17.1841 91.0807 16.3732 89.9875 16.3732C88.8901 16.3732 88.2728 17.1841 88.2728 18.5708C88.2728 19.9685 88.8902 20.7732 89.9875 20.7732C91.0808 20.7732 91.7037 19.9629 91.7037 18.5707Z" fill="white"/>
<path d="M94.332 19.9634C94.332 18.8119 95.1894 18.148 96.7113 18.0537L98.4441 17.9538V17.4016C98.4441 16.726 97.9974 16.3445 97.1345 16.3445C96.4297 16.3445 95.9413 16.6032 95.8012 17.0555H94.579C94.708 15.9567 95.7416 15.252 97.1927 15.252C98.7965 15.252 99.7011 16.0504 99.7011 17.4016V21.7725H98.4857V20.8735H98.3858C98.1831 21.196 97.8984 21.4588 97.5608 21.6353C97.2232 21.8118 96.8449 21.8955 96.4644 21.8779C96.1958 21.9058 95.9244 21.8772 95.6676 21.7938C95.4108 21.7104 95.1743 21.5741 94.9734 21.3937C94.7725 21.2133 94.6117 20.9929 94.5012 20.7465C94.3907 20.5002 94.3331 20.2334 94.332 19.9634ZM98.4441 19.4168V18.8819L96.882 18.9818C96.001 19.0408 95.6014 19.3405 95.6014 19.9044C95.6014 20.4801 96.1009 20.8152 96.7877 20.8152C96.9889 20.8356 97.1922 20.8152 97.3854 20.7555C97.5786 20.6957 97.7578 20.5976 97.9123 20.4671C98.0669 20.3367 98.1936 20.1764 98.285 19.996C98.3763 19.8155 98.4304 19.6185 98.4441 19.4168Z" fill="white"/>
<path d="M101.36 18.5709C101.36 16.5496 102.399 15.269 104.016 15.269C104.415 15.2506 104.812 15.3464 105.16 15.5451C105.507 15.7439 105.791 16.0374 105.977 16.3914H106.072V12.8779H107.334V21.7722H106.124V20.7615H106.025C105.823 21.1131 105.53 21.403 105.176 21.5997C104.822 21.7964 104.421 21.8926 104.016 21.8776C102.388 21.8777 101.36 20.5972 101.36 18.5709ZM102.664 18.5709C102.664 19.9278 103.304 20.7442 104.374 20.7442C105.438 20.7442 106.095 19.916 106.095 18.5765C106.095 17.2432 105.431 16.4032 104.374 16.4032C103.311 16.4032 102.664 17.2252 102.664 18.5709Z" fill="white"/>
<path d="M112.558 18.5711C112.517 18.1507 112.565 17.7266 112.699 17.3258C112.832 16.9251 113.048 16.5567 113.332 16.2442C113.616 15.9317 113.962 15.682 114.348 15.5111C114.734 15.3402 115.152 15.252 115.574 15.252C115.997 15.252 116.414 15.3402 116.801 15.5111C117.187 15.682 117.533 15.9317 117.817 16.2442C118.101 16.5567 118.317 16.9251 118.45 17.3258C118.583 17.7266 118.631 18.1507 118.591 18.5711C118.632 18.9919 118.585 19.4167 118.452 19.8181C118.319 20.2194 118.103 20.5885 117.819 20.9017C117.535 21.2148 117.189 21.465 116.802 21.6363C116.415 21.8075 115.997 21.8959 115.574 21.8959C115.152 21.8959 114.733 21.8075 114.347 21.6363C113.96 21.465 113.614 21.2148 113.33 20.9017C113.046 20.5885 112.83 20.2194 112.697 19.8181C112.564 19.4167 112.517 18.9919 112.558 18.5711ZM117.293 18.5711C117.293 17.1845 116.67 16.3736 115.576 16.3736C114.479 16.3736 113.862 17.1845 113.862 18.5711C113.862 19.9689 114.479 20.7735 115.576 20.7735C116.67 20.7735 117.293 19.9633 117.293 18.5711Z" fill="white"/>
<path d="M120.285 15.3754H121.5V16.3916H121.595C121.755 16.0266 122.025 15.7207 122.367 15.5164C122.709 15.3121 123.107 15.2196 123.504 15.2519C123.815 15.2285 124.128 15.2754 124.418 15.3892C124.709 15.503 124.97 15.6807 125.183 15.9092C125.396 16.1377 125.554 16.4112 125.647 16.7092C125.739 17.0073 125.764 17.3224 125.718 17.6312V21.7724H124.455V17.9482C124.455 16.9202 124.009 16.409 123.075 16.409C122.864 16.3991 122.653 16.4351 122.457 16.5144C122.26 16.5937 122.084 16.7145 121.939 16.8685C121.794 17.0225 121.684 17.206 121.616 17.4065C121.549 17.607 121.525 17.8197 121.548 18.0301V21.7724H120.285V15.3754Z" fill="white"/>
<path d="M132.852 13.7827V15.4045H134.238V16.4679H132.852V19.7573C132.852 20.4274 133.128 20.7208 133.756 20.7208C133.917 20.7203 134.078 20.7106 134.238 20.6917V21.7433C134.011 21.7839 133.781 21.8054 133.551 21.8078C132.147 21.8078 131.588 21.3139 131.588 20.0806V16.4679H130.572V15.4045H131.588V13.7827H132.852Z" fill="white"/>
<path d="M135.962 12.8779H137.214V16.4032H137.313C137.481 16.0348 137.759 15.7271 138.108 15.522C138.457 15.317 138.86 15.2245 139.264 15.2572C139.574 15.2404 139.883 15.2921 140.171 15.4086C140.458 15.5252 140.716 15.7037 140.926 15.9315C141.137 16.1593 141.294 16.4307 141.388 16.7264C141.481 17.0221 141.508 17.3347 141.467 17.6421V21.7722H140.203V17.9535C140.203 16.9318 139.727 16.4143 138.835 16.4143C138.618 16.3965 138.4 16.4263 138.196 16.5017C137.992 16.577 137.806 16.6961 137.653 16.8506C137.499 17.0051 137.382 17.1912 137.308 17.396C137.234 17.6008 137.205 17.8192 137.225 18.0361V21.7722H135.962L135.962 12.8779Z" fill="white"/>
<path d="M148.828 20.0449C148.657 20.6295 148.285 21.1352 147.779 21.4736C147.272 21.8119 146.662 21.9613 146.056 21.8956C145.635 21.9067 145.216 21.826 144.829 21.659C144.442 21.492 144.096 21.2428 143.815 20.9287C143.533 20.6145 143.324 20.2429 143.201 19.8397C143.078 19.4365 143.044 19.0113 143.101 18.5937C143.045 18.1748 143.08 17.7487 143.203 17.3443C143.326 16.9398 143.534 16.5665 143.814 16.2496C144.093 15.9327 144.438 15.6796 144.824 15.5074C145.21 15.3352 145.628 15.248 146.051 15.2516C147.831 15.2516 148.905 16.4676 148.905 18.4764V18.917H144.387V18.9877C144.368 19.2225 144.397 19.4588 144.474 19.6814C144.551 19.9041 144.674 20.1083 144.834 20.2808C144.994 20.4534 145.189 20.5905 145.406 20.6834C145.622 20.7763 145.856 20.823 146.091 20.8203C146.393 20.8566 146.699 20.8022 146.97 20.6641C147.241 20.526 147.465 20.3104 147.613 20.0448L148.828 20.0449ZM144.387 17.9833H147.619C147.635 17.7686 147.605 17.5529 147.533 17.3502C147.461 17.1474 147.347 16.962 147.198 16.806C147.05 16.6499 146.871 16.5266 146.672 16.4439C146.473 16.3613 146.259 16.3211 146.044 16.3261C145.826 16.3233 145.609 16.3643 145.407 16.4466C145.204 16.529 145.021 16.6509 144.866 16.8054C144.712 16.9598 144.59 17.1436 144.508 17.3459C144.426 17.5482 144.385 17.7649 144.387 17.9833Z" fill="white"/>
</g>
</g>
</g>
<defs>
<clipPath id="clip0_1_569">
<rect width="170" height="56.83" fill="white" transform="translate(0 0.890137)"/>
</clipPath>
<clipPath id="clip1_1_569">
<rect width="170" height="56.83" fill="white" transform="translate(0 0.890137)"/>
</clipPath>
<clipPath id="clip2_1_569">
<rect width="170" height="56.8257" fill="white" transform="translate(0 0.89209)"/>
</clipPath>
</defs>
</svg>
