<svg width="24" height="25" viewBox="0 0 24 25" fill="none" xmlns="http://www.w3.org/2000/svg">
<g clip-path="url(#clip0_1_612)">
<g clip-path="url(#clip1_1_612)">
<g clip-path="url(#clip2_1_612)">
<path d="M1.01001 13.3599V19.3599C1.01001 19.8903 1.22072 20.399 1.5958 20.7741C1.97087 21.1492 2.47958 21.3599 3.01001 21.3599H21.01C21.5404 21.3599 22.0491 21.1492 22.4242 20.7741C22.7993 20.399 23.01 19.8903 23.01 19.3599V13.3599" stroke="#070425" stroke-width="1.5" stroke-linecap="round" stroke-linejoin="round"/>
<path d="M23.01 8.35986V5.35986C23.01 4.82943 22.7993 4.32072 22.4242 3.94565C22.0491 3.57057 21.5404 3.35986 21.01 3.35986H3.01001C2.47958 3.35986 1.97087 3.57057 1.5958 3.94565C1.22072 4.32072 1.01001 4.82943 1.01001 5.35986V8.35986L12.01 14.3599L23.01 8.35986Z" stroke="#070425" stroke-width="1.5" stroke-linecap="round" stroke-linejoin="round"/>
</g>
</g>
</g>
<defs>
<clipPath id="clip0_1_612">
<rect width="24" height="24" fill="white" transform="translate(0.0100098 0.359863)"/>
</clipPath>
<clipPath id="clip1_1_612">
<rect width="24" height="24" fill="white" transform="translate(0.0100098 0.359863)"/>
</clipPath>
<clipPath id="clip2_1_612">
<rect width="24" height="24" fill="white" transform="translate(0.0100098 0.359863)"/>
</clipPath>
</defs>
</svg>
