<svg width="64" height="65" viewBox="0 0 64 65" fill="none" xmlns="http://www.w3.org/2000/svg">
<rect y="0.5" width="64" height="64" rx="32" fill="#843DFF" fill-opacity="0.1"/>
<path d="M32 42.5C37.5228 42.5 42 38.0228 42 32.5C42 26.9771 37.5228 22.5 32 22.5C26.4771 22.5 22 26.9771 22 32.5C22 38.0228 26.4771 42.5 32 42.5Z" stroke="#843DFF" stroke-width="2" stroke-linecap="round" stroke-linejoin="round"/>
<path d="M32 28.5V27.5" stroke="#843DFF" stroke-width="2" stroke-linecap="round" stroke-linejoin="round"/>
<path d="M32 37.5V36.5" stroke="#843DFF" stroke-width="2" stroke-linecap="round" stroke-linejoin="round"/>
<path d="M34 28.5H31C29.8954 28.5 29 29.3954 29 30.5C29 31.6046 29.8954 32.5 31 32.5H33C34.1046 32.5 35 33.3954 35 34.5C35 35.6046 34.1046 36.5 33 36.5H30" stroke="#843DFF" stroke-width="2" stroke-linecap="round" stroke-linejoin="round"/>
</svg>
