<svg width="24" height="30" viewBox="0 0 24 30" fill="none" xmlns="http://www.w3.org/2000/svg">
<g clip-path="url(#clip0_1_626)">
<g clip-path="url(#clip1_1_626)">
<path d="M12 8.34186C14.937 8.34186 15.285 8.35286 16.445 8.40586C17.1424 8.41398 17.8331 8.54219 18.487 8.78486C18.965 8.96097 19.3973 9.24223 19.752 9.60786C20.1176 9.96255 20.3989 10.3949 20.575 10.8729C20.8177 11.5267 20.9459 12.2175 20.954 12.9149C21.007 14.0749 21.018 14.4229 21.018 17.3599C21.018 20.2969 21.007 20.6449 20.954 21.8049C20.9459 22.5023 20.8177 23.193 20.575 23.8469C20.3919 24.3214 20.1116 24.7523 19.752 25.1119C19.3924 25.4715 18.9615 25.7518 18.487 25.9349C17.8331 26.1776 17.1424 26.3058 16.445 26.3139C15.285 26.3669 14.937 26.3779 12 26.3779C9.063 26.3779 8.715 26.3669 7.555 26.3139C6.85762 26.3058 6.16685 26.1776 5.513 25.9349C5.035 25.7588 4.60269 25.4775 4.248 25.1119C3.88237 24.7572 3.60111 24.3249 3.425 23.8469C3.18233 23.193 3.05412 22.5023 3.046 21.8049C2.993 20.6449 2.982 20.2969 2.982 17.3599C2.982 14.4229 2.993 14.0749 3.046 12.9149C3.05412 12.2175 3.18233 11.5267 3.425 10.8729C3.60111 10.3949 3.88237 9.96255 4.248 9.60786C4.60269 9.24223 5.035 8.96097 5.513 8.78486C6.16685 8.54219 6.85762 8.41398 7.555 8.40586C8.715 8.35286 9.063 8.34186 12 8.34186ZM12 6.35986C9.013 6.35986 8.638 6.37286 7.465 6.42586C6.55258 6.44472 5.6499 6.61748 4.795 6.93686C4.06355 7.22003 3.3994 7.65305 2.84521 8.2081C2.29102 8.76315 1.85904 9.42797 1.577 10.1599C1.25762 11.0148 1.08486 11.9174 1.066 12.8299C1.013 13.9979 1 14.3729 1 17.3599C1 20.3469 1.013 20.7219 1.066 21.8949C1.08486 22.8073 1.25762 23.71 1.577 24.5649C1.86017 25.2964 2.29319 25.9605 2.84824 26.5147C3.40329 27.0689 4.06811 27.5009 4.8 27.7829C5.6549 28.1023 6.55758 28.275 7.47 28.2939C8.638 28.3469 9.013 28.3599 12 28.3599C14.987 28.3599 15.362 28.3469 16.535 28.2939C17.4474 28.275 18.3501 28.1023 19.205 27.7829C19.9365 27.4997 20.6006 27.0667 21.1548 26.5117C21.709 25.9566 22.141 25.2918 22.423 24.5599C22.7424 23.705 22.9151 22.8023 22.934 21.8899C22.987 20.7219 23 20.3469 23 17.3599C23 14.3729 22.987 13.9979 22.934 12.8249C22.9151 11.9124 22.7424 11.0098 22.423 10.1549C22.1398 9.42341 21.7068 8.75926 21.1518 8.20507C20.5967 7.65088 19.9319 7.2189 19.2 6.93686C18.3451 6.61748 17.4424 6.44472 16.53 6.42586C15.362 6.37286 14.987 6.35986 12 6.35986Z" fill="#070425"/>
<path d="M11.9999 11.7109C10.8826 11.7109 9.79051 12.0422 8.86154 12.663C7.93257 13.2837 7.20852 14.1659 6.78096 15.1982C6.3534 16.2304 6.24153 17.3662 6.4595 18.462C6.67747 19.5578 7.21548 20.5644 8.00551 21.3544C8.79554 22.1444 9.80209 22.6825 10.8979 22.9004C11.9936 23.1184 13.1295 23.0065 14.1617 22.579C15.1939 22.1514 16.0762 21.4274 16.6969 20.4984C17.3176 19.5694 17.6489 18.4772 17.6489 17.36C17.6489 15.8618 17.0538 14.4249 15.9944 13.3655C14.935 12.3061 13.4981 11.7109 11.9999 11.7109ZM11.9999 21.027C11.2747 21.027 10.5657 20.8119 9.96268 20.409C9.35964 20.006 8.88964 19.4333 8.61209 18.7633C8.33454 18.0932 8.26192 17.3559 8.40342 16.6446C8.54491 15.9333 8.89416 15.2798 9.407 14.767C9.91983 14.2541 10.5732 13.9049 11.2845 13.7634C11.9958 13.6219 12.7332 13.6945 13.4032 13.9721C14.0733 14.2496 14.646 14.7196 15.0489 15.3227C15.4518 15.9257 15.6669 16.6347 15.6669 17.36C15.6669 18.3325 15.2806 19.2652 14.5929 19.9529C13.9052 20.6406 12.9725 21.027 11.9999 21.027Z" fill="#070425"/>
<path d="M17.872 12.808C18.601 12.808 19.192 12.217 19.192 11.488C19.192 10.7589 18.601 10.168 17.872 10.168C17.143 10.168 16.552 10.7589 16.552 11.488C16.552 12.217 17.143 12.808 17.872 12.808Z" fill="#070425"/>
</g>
</g>
<defs>
<clipPath id="clip0_1_626">
<rect width="24" height="24" fill="white" transform="translate(0 5.35986)"/>
</clipPath>
<clipPath id="clip1_1_626">
<rect width="24" height="24" fill="white" transform="translate(0 5.35986)"/>
</clipPath>
</defs>
</svg>
