<svg width="24" height="25" viewBox="0 0 24 25" fill="none" xmlns="http://www.w3.org/2000/svg">
<mask id="mask0_10_97" style="mask-type:luminance" maskUnits="userSpaceOnUse" x="0" y="0" width="24" height="25">
<path d="M24 0.359863H0V24.3599H24V0.359863Z" fill="white"/>
</mask>
<g mask="url(#mask0_10_97)">
<mask id="mask1_10_97" style="mask-type:luminance" maskUnits="userSpaceOnUse" x="0" y="0" width="24" height="25">
<path d="M24 0.359863H0V24.3599H24V0.359863Z" fill="white"/>
</mask>
<g mask="url(#mask1_10_97)">
<path d="M12 3.34186C14.937 3.34186 15.285 3.35286 16.445 3.40586C17.1424 3.41398 17.8331 3.54219 18.487 3.78486C18.965 3.96097 19.3973 4.24223 19.752 4.60786C20.1176 4.96255 20.3989 5.3949 20.575 5.8729C20.8177 6.5267 20.9459 7.2175 20.954 7.9149C21.007 9.0749 21.018 9.4229 21.018 12.3599C21.018 15.2969 21.007 15.6449 20.954 16.8049C20.9459 17.5023 20.8177 18.193 20.575 18.8469C20.3919 19.3214 20.1116 19.7523 19.752 20.1119C19.3924 20.4715 18.9615 20.7518 18.487 20.9349C17.8331 21.1776 17.1424 21.3058 16.445 21.3139C15.285 21.3669 14.937 21.3779 12 21.3779C9.063 21.3779 8.715 21.3669 7.555 21.3139C6.85762 21.3058 6.16685 21.1776 5.513 20.9349C5.035 20.7588 4.60269 20.4775 4.248 20.1119C3.88237 19.7572 3.60111 19.3249 3.425 18.8469C3.18233 18.193 3.05412 17.5023 3.046 16.8049C2.993 15.6449 2.982 15.2969 2.982 12.3599C2.982 9.4229 2.993 9.0749 3.046 7.9149C3.05412 7.2175 3.18233 6.5267 3.425 5.8729C3.60111 5.3949 3.88237 4.96255 4.248 4.60786C4.60269 4.24223 5.035 3.96097 5.513 3.78486C6.16685 3.54219 6.85762 3.41398 7.555 3.40586C8.715 3.35286 9.063 3.34186 12 3.34186ZM12 1.35986C9.013 1.35986 8.638 1.37286 7.465 1.42586C6.55258 1.44472 5.6499 1.61748 4.795 1.93686C4.06355 2.22003 3.3994 2.65305 2.84521 3.2081C2.29102 3.76315 1.85904 4.42797 1.577 5.1599C1.25762 6.0148 1.08486 6.9174 1.066 7.8299C1.013 8.9979 1 9.3729 1 12.3599C1 15.3469 1.013 15.7219 1.066 16.8949C1.08486 17.8073 1.25762 18.71 1.577 19.5649C1.86017 20.2964 2.29319 20.9605 2.84824 21.5147C3.40329 22.0689 4.06811 22.5009 4.8 22.7829C5.6549 23.1023 6.55758 23.275 7.47 23.2939C8.638 23.3469 9.013 23.3599 12 23.3599C14.987 23.3599 15.362 23.3469 16.535 23.2939C17.4474 23.275 18.3501 23.1023 19.205 22.7829C19.9365 22.4997 20.6006 22.0667 21.1548 21.5117C21.709 20.9566 22.141 20.2918 22.423 19.5599C22.7424 18.705 22.9151 17.8023 22.934 16.8899C22.987 15.7219 23 15.3469 23 12.3599C23 9.3729 22.987 8.9979 22.934 7.8249C22.9151 6.9124 22.7424 6.0098 22.423 5.1549C22.1398 4.42341 21.7068 3.75926 21.1518 3.20507C20.5967 2.65088 19.9319 2.2189 19.2 1.93686C18.3451 1.61748 17.4424 1.44472 16.53 1.42586C15.362 1.37286 14.987 1.35986 12 1.35986Z" fill="#070425"/>
<path d="M12 6.71094C10.8827 6.71094 9.79063 7.04224 8.86166 7.66304C7.93269 8.28374 7.20864 9.16594 6.78108 10.1982C6.35352 11.2304 6.24165 12.3662 6.45962 13.462C6.67759 14.5578 7.2156 15.5644 8.00563 16.3544C8.79566 17.1444 9.80221 17.6825 10.898 17.9004C11.9937 18.1184 13.1296 18.0065 14.1618 17.579C15.194 17.1514 16.0763 16.4274 16.697 15.4984C17.3177 14.5694 17.649 13.4772 17.649 12.36C17.649 10.8618 17.0539 9.42494 15.9945 8.36554C14.9351 7.30614 13.4982 6.71094 12 6.71094ZM12 16.027C11.2748 16.027 10.5658 15.8119 9.9628 15.409C9.35976 15.006 8.88976 14.4333 8.61221 13.7633C8.33466 13.0932 8.26204 12.3559 8.40354 11.6446C8.54503 10.9333 8.89428 10.2798 9.40712 9.76704C9.91995 9.25414 10.5733 8.90494 11.2846 8.76344C11.9959 8.62194 12.7333 8.69454 13.4033 8.97214C14.0734 9.24964 14.6461 9.71964 15.049 10.3227C15.4519 10.9257 15.667 11.6347 15.667 12.36C15.667 13.3325 15.2807 14.2652 14.593 14.9529C13.9053 15.6406 12.9726 16.027 12 16.027Z" fill="#070425"/>
<path d="M17.872 7.80797C18.601 7.80797 19.192 7.21697 19.192 6.48797C19.192 5.75887 18.601 5.16797 17.872 5.16797C17.143 5.16797 16.552 5.75887 16.552 6.48797C16.552 7.21697 17.143 7.80797 17.872 7.80797Z" fill="#070425"/>
</g>
</g>
</svg>
