<svg width="56" height="41" viewBox="0 0 56 41" fill="none" xmlns="http://www.w3.org/2000/svg">
<mask id="mask0_1_40" style="mask-type:luminance" maskUnits="userSpaceOnUse" x="0" y="0" width="56" height="42">
<path d="M56 0H0V41.4236H56V0Z" fill="white"/>
</mask>
<g mask="url(#mask0_1_40)">
<mask id="mask1_1_40" style="mask-type:luminance" maskUnits="userSpaceOnUse" x="0" y="0" width="56" height="42">
<path d="M56 0H0V41.4236H56V0Z" fill="white"/>
</mask>
<g mask="url(#mask1_1_40)">
<mask id="mask2_1_40" style="mask-type:luminance" maskUnits="userSpaceOnUse" x="0" y="0" width="56" height="42">
<path d="M55.9971 0H0.0038414V41.4236H55.9971V0Z" fill="white"/>
</mask>
<g mask="url(#mask2_1_40)">
<path fill-rule="evenodd" clip-rule="evenodd" d="M22.7136 8.92132V20.5632H24.049V22.375H15.5362V20.5632H16.8716V0.119205H20.7107C21.8169 0.119205 22.7136 1.01599 22.7136 2.12223V3.90269C22.7136 5.30454 23.2705 6.64898 24.2618 7.64028C25.2531 8.63151 26.5976 9.18844 27.9994 9.18844C29.4013 9.18844 30.7458 8.63151 31.7369 7.64028C32.7283 6.64898 33.2852 5.30454 33.2852 3.90269V2.12223C33.2852 1.01599 34.1819 0.119205 35.2881 0.119205H39.1272V20.5632H40.4626V22.375H31.9498V20.5632H33.2852V8.92132C33.2419 8.96694 33.1979 9.01205 33.1534 9.05659C31.7864 10.4235 29.9324 11.1914 27.9994 11.1914C26.0663 11.1914 24.2124 10.4235 22.8455 9.05659C22.8009 9.01205 22.757 8.96694 22.7136 8.92132ZM18.8745 2.12223H20.7107V20.5632H18.8745V2.12223ZM35.2881 20.5632H37.1243V2.12223H35.2881V20.5632Z" fill="#8961FA"/>
<path d="M1.90674 39.2894V32.6783H0.187414V30.883H3.89996V32.1686C5.09436 31.2176 6.26594 30.746 7.41468 30.746C8.56344 30.746 9.40027 31.2785 9.83392 32.3359C11.1424 31.2785 12.3673 30.746 13.5236 30.746C14.3453 30.746 14.9996 30.9893 15.4864 31.4763C15.9734 31.9632 16.2168 32.7011 16.2168 33.7053V39.2894H17.9969V41.0695H14.2312V34.6182C14.2312 34.1694 14.2083 33.8119 14.1627 33.5303C14.117 33.2565 14.003 33.0207 13.8127 32.8229C13.6226 32.625 13.3183 32.5338 12.9075 32.5338C12.5423 32.5338 12.1086 32.6403 11.6217 32.8608C11.1272 33.0815 10.6175 33.4086 10.0698 33.8498V39.2894H11.7967V41.0695H8.06897V34.3672C8.06897 33.7129 7.97004 33.2489 7.77223 32.9598C7.57443 32.6783 7.24735 32.5338 6.7985 32.5338C6.06052 32.5338 5.09436 32.975 3.89996 33.8498V39.2894H5.69537V41.0695H0.0732956V39.2894H1.90674Z" fill="#06050F"/>
<path d="M29.1634 36.4905H20.6275C20.7492 37.4644 21.1296 38.2328 21.7611 38.8034C22.3925 39.3663 23.1685 39.6477 24.089 39.6477C24.7585 39.6477 25.3824 39.5109 25.9605 39.2294C26.5387 38.9478 27.0179 38.5219 27.406 37.9512L29.1709 38.7424C28.6156 39.6097 27.8853 40.2639 26.9875 40.7053C26.0899 41.1466 25.1085 41.3671 24.0434 41.3671C22.9782 41.3671 21.9665 41.1388 21.1145 40.6824C20.2623 40.2259 19.6005 39.5868 19.1211 38.7652C18.6419 37.9436 18.4061 37.0232 18.4061 35.9961C18.4061 34.969 18.6419 34.0561 19.106 33.2345C19.5776 32.4128 20.2167 31.7738 21.0308 31.3097C21.8448 30.8456 22.7424 30.6175 23.7238 30.6175C24.7964 30.6175 25.7322 30.8533 26.5311 31.3326C27.3299 31.8042 27.9536 32.489 28.4178 33.3639C28.8743 34.2464 29.1253 35.2885 29.1634 36.4905ZM23.7695 32.2836C23.0164 32.2836 22.3545 32.5346 21.7838 33.0444C21.2133 33.554 20.8482 34.2235 20.6884 35.0527H27.0636C26.8735 34.2159 26.4778 33.5465 25.8692 33.0444C25.2606 32.5346 24.5607 32.2836 23.7695 32.2836Z" fill="#06050F"/>
<path d="M32.7688 39.4264H37.4399V37.3267H39.182V41.0772H30.4332V39.4264L36.778 32.5567H32.6091V34.5041H30.9048V30.8906H39.182V32.6859L32.7688 39.4264Z" fill="#06050F"/>
<path d="M42.9704 39.4264H47.6414V37.3267H49.3836V41.0772H40.6348V39.4264L46.9796 32.5567H42.8105V34.5041H41.1064V30.8906H49.3836V32.6859L42.9704 39.4264Z" fill="#06050F"/>
<path d="M55.9185 39.2897V41.07H50.7757V39.2897H52.3657V32.6787H50.7757V30.8833H54.3742V39.2822H55.9261L55.9185 39.2897ZM54.4807 27.4599C54.4807 27.787 54.359 28.0761 54.1232 28.312C53.8873 28.5477 53.5982 28.6694 53.271 28.6694C52.9439 28.6694 52.6625 28.5477 52.4267 28.312C52.1908 28.0761 52.0767 27.787 52.0767 27.4599C52.0767 27.1328 52.1908 26.8437 52.4267 26.6078C52.6625 26.3721 52.9439 26.2502 53.271 26.2502C53.5982 26.2502 53.9025 26.3643 54.1307 26.6001C54.359 26.836 54.4807 27.1175 54.4807 27.4599Z" fill="#06050F"/>
</g>
</g>
</g>
</svg>
