<svg width="66" height="50" viewBox="0 0 66 50" fill="none" xmlns="http://www.w3.org/2000/svg">
<path fill-rule="evenodd" clip-rule="evenodd" d="M26.754 11.0326V24.8623H28.332V27.0146H18.2726V24.8623H19.8506V0.576172H24.3871C25.6943 0.576172 26.754 1.64149 26.754 2.95563V5.0707C26.754 6.73603 27.4121 8.33315 28.5835 9.51071C29.7548 10.6883 31.3435 11.3498 33 11.3498C34.6566 11.3498 36.2453 10.6883 37.4166 9.51071C38.588 8.33315 39.246 6.73603 39.246 5.0707V2.95563C39.246 1.64149 40.3057 0.576172 41.6129 0.576172H46.1495V24.8623H47.7274V27.0146H37.6681V24.8623H39.246V11.0326C39.1949 11.0867 39.1429 11.1403 39.0903 11.1932C37.475 12.817 35.2843 13.7293 33 13.7293C30.7158 13.7293 28.525 12.817 26.9098 11.1932C26.8571 11.1403 26.8052 11.0867 26.754 11.0326ZM22.2175 2.95563H24.3871V24.8623H22.2175V2.95563ZM41.6129 24.8623H43.7826V2.95563H41.6129V24.8623Z" fill="white"/>
<path d="M2.16656 47.108V39.2545H0.134877V37.1217H4.52188V38.649C5.93327 37.5193 7.31769 36.959 8.67514 36.959C10.0326 36.959 11.0215 37.5916 11.5339 38.8478C13.0801 37.5916 14.5275 36.959 15.8939 36.959C16.8648 36.959 17.6379 37.2482 18.2133 37.8266C18.7886 38.405 19.0763 39.2816 19.0763 40.4745V47.108H21.1799V49.2228H16.73V41.559C16.73 41.0258 16.703 40.6011 16.6491 40.2667C16.5951 39.9413 16.4603 39.6612 16.2355 39.4262C16.0108 39.1912 15.6512 39.0828 15.1657 39.0828C14.7342 39.0828 14.2218 39.2093 13.6465 39.4714C13.0621 39.7335 12.4598 40.1221 11.8126 40.6463V47.108H13.8532V49.2228H9.44826V41.2608C9.44826 40.4836 9.33139 39.9323 9.09766 39.5889C8.86393 39.2545 8.47737 39.0828 7.94697 39.0828C7.07497 39.0828 5.93327 39.607 4.52188 40.6463V47.108H6.64346V49.2228H3.05176e-05V47.108H2.16656Z" fill="white"/>
<path d="M34.3744 43.7831H24.2879C24.4317 44.9398 24.8812 45.8526 25.6274 46.5304C26.3735 47.1992 27.2905 47.5336 28.3782 47.5336C29.1693 47.5336 29.9065 47.3709 30.5897 47.0365C31.2729 46.7021 31.8393 46.196 32.2978 45.5182L34.3834 46.4581C33.7271 47.4884 32.8641 48.2656 31.8033 48.7898C30.7426 49.314 29.5829 49.576 28.3243 49.576C27.0657 49.576 25.8701 49.3049 24.8633 48.7627C23.8564 48.2204 23.0743 47.4613 22.5079 46.4852C21.9416 45.5092 21.6629 44.4157 21.6629 43.1956C21.6629 41.9756 21.9416 40.8911 22.49 39.915C23.0473 38.939 23.8025 38.1798 24.7644 37.6286C25.7263 37.0773 26.7871 36.8062 27.9467 36.8062C29.2143 36.8062 30.32 37.0863 31.264 37.6557C32.2079 38.216 32.945 39.0294 33.4934 40.0687C34.0328 41.117 34.3295 42.3551 34.3744 43.7831ZM28.0007 38.7854C27.1107 38.7854 26.3286 39.0836 25.6544 39.6891C24.9801 40.2946 24.5486 41.0899 24.3598 42.075H31.8932C31.6685 41.0809 31.201 40.2856 30.4818 39.6891C29.7627 39.0836 28.9356 38.7854 28.0007 38.7854Z" fill="white"/>
<path d="M38.635 47.2704H44.1547V44.776H46.2134V49.2315H35.8752V47.2704L43.3726 39.1096H38.4462V41.4232H36.4325V37.1304H46.2134V39.2632L38.635 47.2704Z" fill="white"/>
<path d="M50.6905 47.2704H56.2102V44.776H58.2688V49.2315H47.9306V47.2704L55.4281 39.1096H50.5017V41.4232H48.488V37.1304H58.2688V39.2632L50.6905 47.2704Z" fill="white"/>
<path d="M65.991 47.1083V49.2231H59.914V47.1083H61.7928V39.2548H59.914V37.122H64.1661V47.0993H66L65.991 47.1083ZM64.292 33.0551C64.292 33.4437 64.1481 33.7871 63.8695 34.0673C63.5908 34.3475 63.2492 34.4921 62.8626 34.4921C62.476 34.4921 62.1434 34.3475 61.8647 34.0673C61.5861 33.7871 61.4512 33.4437 61.4512 33.0551C61.4512 32.6665 61.5861 32.3231 61.8647 32.0429C62.1434 31.7628 62.476 31.6182 62.8626 31.6182C63.2492 31.6182 63.6088 31.7537 63.8784 32.0339C64.1481 32.314 64.292 32.6484 64.292 33.0551Z" fill="white"/>
</svg>
