<svg width="32" height="33" viewBox="0 0 32 33" fill="none" xmlns="http://www.w3.org/2000/svg">
<rect y="0.700195" width="32" height="32" rx="16" fill="#8961FA" fill-opacity="0.1"/>
<path d="M21.5 14.7002C21.5 19.2002 16 24.2002 16 24.2002C16 24.2002 10.5 19.2002 10.5 14.7002C10.5 13.2415 11.0795 11.8426 12.1109 10.8111C13.1424 9.77966 14.5413 9.2002 16 9.2002C17.4587 9.2002 18.8576 9.77966 19.8891 10.8111C20.9205 11.8426 21.5 13.2415 21.5 14.7002Z" stroke="#843DFF" stroke-linecap="round" stroke-linejoin="round"/>
<path d="M16 17.2002C17.3807 17.2002 18.5 16.0809 18.5 14.7002C18.5 13.3195 17.3807 12.2002 16 12.2002C14.6193 12.2002 13.5 13.3195 13.5 14.7002C13.5 16.0809 14.6193 17.2002 16 17.2002Z" stroke="#843DFF" stroke-linecap="round" stroke-linejoin="round"/>
</svg>
